Coordinates
version=1
nRows=43
nColumns=12
inDegrees=yes

Units are S.I. units (second, meters, Newtons, ...)
Angles are in degrees

endheader
time	SC_y	SC_z	SC_x	AC_y	AC_z	AC_x	GH_y	GH_z	GH_yy	EL_x	PS_y
       0.0              -29.21          7.156          73.73          45.42          8.771         -10.46         -100.5          88.01          177.8          92.67          87.45
   0.03123              -29.21          7.156          73.73          45.43          8.771         -10.46         -100.5           88.0          177.8          92.66          87.46
   0.06246              -29.22          7.156          73.73          45.43          8.771         -10.46         -100.5           88.0          177.7          92.65          87.46
   0.09369              -29.22          7.156          73.73          45.43          8.771         -10.46         -100.5           88.0          177.7          92.63          87.46
    0.1249              -29.22          7.157          73.73          45.43          8.771         -10.46         -100.5          87.99          177.7          92.62          87.46
    0.1562              -29.23          7.157          73.73          45.43          8.771         -10.46         -100.5          87.99          177.7          92.61          87.46
    0.1874              -29.23          7.157          73.74          45.43          8.771         -10.46         -100.6          87.98          177.7          92.59          87.46
    0.2186              -29.24          7.158          73.74          45.44          8.771         -10.46         -100.6          87.98          177.7          92.58          87.46
    0.2498              -29.24          7.158          73.74          45.44          8.771         -10.46         -100.6          87.97          177.7          92.56          87.47
    0.2811              -29.25          7.158          73.74          45.44          8.771         -10.45         -100.6          87.97          177.7          92.54          87.47
    0.3123              -29.25          7.159          73.75          45.44          8.772         -10.45         -100.6          87.96          177.7          92.53          87.47
    0.3435              -29.26          7.159          73.75          45.44          8.772         -10.45         -100.6          87.96          177.6           92.5          87.47
    0.3748              -29.27          7.159          73.75          45.45          8.772         -10.45         -100.7          87.95          177.6          92.48          87.48
     0.406              -29.27           7.16          73.76          45.45          8.772         -10.45         -100.7          87.94          177.6          92.46          87.48
    0.4372              -29.28           7.16          73.76          45.45          8.772         -10.44         -100.7          87.93          177.6          92.43          87.48
    0.4685              -29.29          7.161          73.77          45.46          8.772         -10.44         -100.7          87.93          177.6          92.41          87.48
    0.4997               -29.3          7.161          73.77          45.46          8.772         -10.44         -100.8          87.92          177.5          92.37          87.49
    0.5309              -29.31          7.162          73.78          45.47          8.772         -10.44         -100.8          87.91          177.5          92.34          87.49
    0.5621              -29.32          7.163          73.78          45.47          8.772         -10.43         -100.8           87.9          177.5          92.31           87.5
    0.5934              -29.33          7.164          73.79          45.47          8.772         -10.43         -100.9          87.88          177.4          92.27           87.5
    0.6246              -29.35          7.164          73.79          45.48          8.772         -10.43         -100.9          87.87          177.4          92.22          87.51
    0.6558              -29.36          7.165           73.8          45.49          8.773         -10.42         -101.0          87.86          177.4          92.18          87.51
    0.6871              -29.38          7.166          73.81          45.49          8.773         -10.42         -101.0          87.84          177.3          92.12          87.52
    0.7183               -29.4          7.167          73.82           45.5          8.773         -10.41         -101.1          87.82          177.3          92.06          87.52
    0.7495              -29.42          7.169          73.83          45.51          8.773         -10.41         -101.1           87.8          177.2           92.0          87.53
    0.7808              -29.44           7.17          73.84          45.52          8.773          -10.4         -101.2          87.78          177.2          91.93          87.54
     0.812              -29.46          7.172          73.85          45.53          8.774         -10.39         -101.3          87.75          177.1          91.85          87.55
    0.8432              -29.49          7.173          73.86          45.54          8.774         -10.39         -101.4          87.73          177.0          91.75          87.56
    0.8745              -29.52          7.175          73.88          45.55          8.774         -10.38         -101.5          87.69          176.9          91.65          87.57
    0.9057              -29.56          7.178           73.9          45.57          8.775         -10.37         -101.6          87.66          176.8          91.53          87.58
    0.9369               -29.6           7.18          73.92          45.58          8.775         -10.36         -101.7          87.62          176.7           91.4           87.6
    0.9681              -29.65          7.183          73.94           45.6          8.776         -10.34         -101.9          87.57          176.6          91.25          87.62
    0.9994               -29.7          7.187          73.97          45.62          8.776         -10.33         -102.1          87.51          176.5          91.07          87.64
     1.031              -29.76          7.191           74.0          45.65          8.777         -10.31         -102.3          87.45          176.3          90.86          87.66
     1.062              -29.84          7.195          74.04          45.68          8.778         -10.29         -102.5          87.38          176.1          90.62          87.69
     1.093              -29.92          7.201          74.08          45.71          8.779         -10.27         -102.8          87.29          175.9          90.34          87.72
     1.124              -30.03          7.207          74.13          45.76           8.78         -10.24         -103.1          87.19          175.6           90.0          87.76
     1.156              -30.15          7.215          74.19          45.81          8.781          -10.2         -103.5          87.06          175.3          89.59          87.81
     1.187               -30.3          7.224          74.27          45.87          8.783         -10.16         -104.0          86.91          174.9          89.11          87.86
     1.218              -30.48          7.236          74.36          45.94          8.785         -10.11         -104.6          86.73          174.4          88.51          87.93
     1.249              -30.71           7.25          74.47          46.03          8.787         -10.05         -105.3           86.5          173.8          87.77          88.02
      1.28              -30.99          7.268          74.61          46.15           8.79         -9.967         -106.2          86.21          173.0          86.85          88.12
     1.312              -31.35           7.29          74.79          46.29          8.794         -9.867         -107.4          85.86          172.1          85.69          88.26
